# Slab Lab preview mesh
v 0.0000 -36.0000 0.0000
v 8.5415 -20.6210 0.0000
v 25.4558 -25.4558 0.0000
v 20.6210 -8.5415 0.0000
v 36.0000 0.0000 0.0000
v 20.6210 8.5415 0.0000
v 25.4558 25.4558 0.0000
v 8.5415 20.6210 0.0000
v 0.0000 36.0000 0.0000
v -8.5415 20.6210 0.0000
v -25.4558 25.4558 0.0000
v -20.6210 8.5415 0.0000
v -36.0000 0.0000 0.0000
v -20.6210 -8.5415 0.0000
v -25.4558 -25.4558 0.0000
v -8.5415 -20.6210 0.0000
v 0.0000 -36.0000 120.0000
v 8.5415 -20.6210 120.0000
v 25.4558 -25.4558 120.0000
v 20.6210 -8.5415 120.0000
v 36.0000 0.0000 120.0000
v 20.6210 8.5415 120.0000
v 25.4558 25.4558 120.0000
v 8.5415 20.6210 120.0000
v 0.0000 36.0000 120.0000
v -8.5415 20.6210 120.0000
v -25.4558 25.4558 120.0000
v -20.6210 8.5415 120.0000
v -36.0000 0.0000 120.0000
v -20.6210 -8.5415 120.0000
v -25.4558 -25.4558 120.0000
v -8.5415 -20.6210 120.0000
f 1 2 18
f 1 18 17
f 2 3 19
f 2 19 18
f 3 4 20
f 3 20 19
f 4 5 21
f 4 21 20
f 5 6 22
f 5 22 21
f 6 7 23
f 6 23 22
f 7 8 24
f 7 24 23
f 8 9 25
f 8 25 24
f 9 10 26
f 9 26 25
f 10 11 27
f 10 27 26
f 11 12 28
f 11 28 27
f 12 13 29
f 12 29 28
f 13 14 30
f 13 30 29
f 14 15 31
f 14 31 30
f 15 16 32
f 15 32 31
f 16 1 17
f 16 17 32
